ply
format ascii 1.0
element vertex 1295
property float x
property float y
property float z
end_header
80 299 14
80 300 14
81 300 14
82 300 14
84 300 14
80 301 14
81 301 14
82 301 14
78 302 14
79 302 14
80 302 14
81 302 14
82 302 14
83 302 14
77 303 14
78 303 14
79 303 14
80 303 14
81 303 14
75 304 14
76 304 14
77 304 14
78 304 14
79 304 14
75 305 14
76 305 14
85 298 15
79 299 15
80 299 15
81 299 15
82 299 15
83 299 15
84 299 15
85 299 15
79 300 15
80 300 15
81 300 15
82 300 15
83 300 15
84 300 15
85 300 15
78 301 15
79 301 15
80 301 15
81 301 15
82 301 15
83 301 15
84 301 15
85 301 15
77 302 15
78 302 15
79 302 15
80 302 15
81 302 15
82 302 15
83 302 15
84 302 15
75 303 15
76 303 15
77 303 15
78 303 15
79 303 15
80 303 15
81 303 15
82 303 15
70 304 15
71 304 15
72 304 15
74 304 15
75 304 15
76 304 15
77 304 15
78 304 15
79 304 15
80 304 15
68 305 15
72 305 15
73 305 15
74 305 15
75 305 15
76 305 15
77 305 15
78 305 15
79 305 15
73 306 15
74 306 15
75 306 15
76 306 15
77 306 15
78 306 15
79 306 15
72 307 15
73 307 15
74 307 15
75 307 15
76 307 15
77 307 15
78 307 15
73 308 15
74 308 15
75 308 15
76 308 15
73 309 15
80 299 16
83 299 16
84 299 16
85 299 16
80 300 16
81 300 16
82 300 16
83 300 16
84 300 16
85 300 16
86 300 16
78 301 16
80 301 16
81 301 16
82 301 16
83 301 16
84 301 16
85 301 16
86 301 16
78 302 16
79 302 16
80 302 16
81 302 16
82 302 16
83 302 16
84 302 16
76 303 16
77 303 16
78 303 16
79 303 16
80 303 16
81 303 16
82 303 16
83 303 16
67 304 16
68 304 16
69 304 16
70 304 16
74 304 16
75 304 16
76 304 16
77 304 16
78 304 16
79 304 16
80 304 16
81 304 16
67 305 16
68 305 16
69 305 16
70 305 16
71 305 16
72 305 16
73 305 16
74 305 16
75 305 16
76 305 16
77 305 16
78 305 16
79 305 16
80 305 16
67 306 16
68 306 16
69 306 16
70 306 16
71 306 16
72 306 16
73 306 16
74 306 16
75 306 16
76 306 16
77 306 16
78 306 16
79 306 16
68 307 16
71 307 16
72 307 16
73 307 16
74 307 16
75 307 16
76 307 16
77 307 16
78 307 16
79 307 16
71 308 16
72 308 16
73 308 16
74 308 16
75 308 16
76 308 16
77 308 16
78 308 16
72 309 16
73 309 16
74 309 16
75 309 16
77 309 16
82 298 17
84 298 17
80 299 17
81 299 17
82 299 17
83 299 17
84 299 17
85 299 17
86 299 17
80 300 17
81 300 17
82 300 17
83 300 17
84 300 17
85 300 17
86 300 17
79 301 17
80 301 17
81 301 17
82 301 17
83 301 17
84 301 17
78 302 17
79 302 17
80 302 17
81 302 17
82 302 17
83 302 17
84 302 17
76 303 17
77 303 17
78 303 17
79 303 17
80 303 17
81 303 17
82 303 17
83 303 17
67 304 17
68 304 17
69 304 17
71 304 17
74 304 17
75 304 17
76 304 17
77 304 17
78 304 17
79 304 17
80 304 17
81 304 17
67 305 17
68 305 17
69 305 17
70 305 17
71 305 17
72 305 17
73 305 17
74 305 17
75 305 17
76 305 17
77 305 17
78 305 17
79 305 17
80 305 17
81 305 17
67 306 17
68 306 17
69 306 17
70 306 17
71 306 17
72 306 17
73 306 17
74 306 17
75 306 17
76 306 17
77 306 17
78 306 17
79 306 17
80 306 17
70 307 17
71 307 17
72 307 17
73 307 17
74 307 17
75 307 17
76 307 17
77 307 17
78 307 17
79 307 17
70 308 17
71 308 17
72 308 17
73 308 17
74 308 17
75 308 17
76 308 17
77 308 17
78 308 17
71 309 17
72 309 17
73 309 17
74 309 17
75 309 17
72 310 17
73 310 17
83 298 18
84 298 18
85 298 18
80 299 18
81 299 18
82 299 18
83 299 18
84 299 18
85 299 18
80 300 18
81 300 18
82 300 18
83 300 18
84 300 18
85 300 18
86 300 18
79 301 18
80 301 18
81 301 18
82 301 18
83 301 18
84 301 18
85 301 18
78 302 18
79 302 18
80 302 18
81 302 18
82 302 18
83 302 18
84 302 18
85 302 18
75 303 18
76 303 18
77 303 18
78 303 18
79 303 18
80 303 18
81 303 18
82 303 18
67 304 18
69 304 18
71 304 18
74 304 18
75 304 18
76 304 18
77 304 18
78 304 18
79 304 18
80 304 18
81 304 18
67 305 18
68 305 18
69 305 18
70 305 18
71 305 18
72 305 18
74 305 18
75 305 18
76 305 18
77 305 18
78 305 18
79 305 18
80 305 18
81 305 18
67 306 18
68 306 18
69 306 18
70 306 18
71 306 18
72 306 18
73 306 18
74 306 18
75 306 18
76 306 18
77 306 18
78 306 18
79 306 18
80 306 18
65 307 18
66 307 18
67 307 18
68 307 18
69 307 18
70 307 18
71 307 18
72 307 18
73 307 18
74 307 18
75 307 18
76 307 18
77 307 18
78 307 18
79 307 18
69 308 18
70 308 18
71 308 18
72 308 18
73 308 18
74 308 18
75 308 18
76 308 18
77 308 18
78 308 18
79 308 18
70 309 18
71 309 18
72 309 18
73 309 18
74 309 18
75 309 18
76 309 18
77 309 18
71 310 18
72 310 18
73 310 18
74 310 18
75 310 18
72 311 18
73 311 18
73 312 18
83 298 19
80 299 19
81 299 19
82 299 19
83 299 19
84 299 19
85 299 19
86 299 19
80 300 19
81 300 19
82 300 19
83 300 19
84 300 19
85 300 19
86 300 19
80 301 19
81 301 19
82 301 19
83 301 19
84 301 19
85 301 19
86 301 19
79 302 19
80 302 19
81 302 19
82 302 19
83 302 19
84 302 19
78 303 19
79 303 19
80 303 19
81 303 19
82 303 19
83 303 19
76 304 19
77 304 19
78 304 19
79 304 19
80 304 19
81 304 19
82 304 19
68 305 19
69 305 19
70 305 19
71 305 19
72 305 19
73 305 19
74 305 19
75 305 19
76 305 19
77 305 19
78 305 19
79 305 19
80 305 19
81 305 19
67 306 19
68 306 19
69 306 19
70 306 19
71 306 19
72 306 19
73 306 19
74 306 19
75 306 19
76 306 19
77 306 19
78 306 19
79 306 19
80 306 19
81 306 19
66 307 19
67 307 19
68 307 19
69 307 19
70 307 19
71 307 19
72 307 19
73 307 19
74 307 19
75 307 19
76 307 19
77 307 19
78 307 19
79 307 19
66 308 19
67 308 19
68 308 19
69 308 19
70 308 19
71 308 19
72 308 19
73 308 19
74 308 19
75 308 19
76 308 19
77 308 19
78 308 19
79 308 19
67 309 19
68 309 19
69 309 19
70 309 19
71 309 19
72 309 19
73 309 19
74 309 19
75 309 19
76 309 19
77 309 19
78 309 19
68 310 19
69 310 19
70 310 19
71 310 19
72 310 19
73 310 19
74 310 19
75 310 19
76 310 19
69 311 19
70 311 19
71 311 19
72 311 19
73 311 19
71 312 19
72 312 19
73 312 19
80 299 20
81 299 20
82 299 20
83 299 20
84 299 20
80 300 20
81 300 20
82 300 20
83 300 20
84 300 20
85 300 20
86 300 20
80 301 20
81 301 20
82 301 20
83 301 20
84 301 20
85 301 20
86 301 20
79 302 20
80 302 20
81 302 20
82 302 20
83 302 20
84 302 20
79 303 20
80 303 20
81 303 20
82 303 20
83 303 20
77 304 20
78 304 20
79 304 20
80 304 20
81 304 20
82 304 20
68 305 20
69 305 20
70 305 20
72 305 20
73 305 20
74 305 20
75 305 20
76 305 20
77 305 20
78 305 20
79 305 20
80 305 20
81 305 20
67 306 20
68 306 20
69 306 20
70 306 20
71 306 20
72 306 20
73 306 20
74 306 20
75 306 20
76 306 20
77 306 20
78 306 20
79 306 20
80 306 20
81 306 20
66 307 20
67 307 20
68 307 20
69 307 20
70 307 20
71 307 20
72 307 20
73 307 20
74 307 20
75 307 20
76 307 20
77 307 20
78 307 20
79 307 20
80 307 20
81 307 20
65 308 20
66 308 20
67 308 20
68 308 20
69 308 20
70 308 20
71 308 20
72 308 20
73 308 20
74 308 20
75 308 20
76 308 20
77 308 20
78 308 20
79 308 20
66 309 20
67 309 20
68 309 20
69 309 20
70 309 20
71 309 20
72 309 20
73 309 20
74 309 20
75 309 20
76 309 20
77 309 20
78 309 20
79 309 20
66 310 20
67 310 20
68 310 20
69 310 20
70 310 20
71 310 20
72 310 20
73 310 20
74 310 20
75 310 20
76 310 20
77 310 20
78 310 20
79 310 20
67 311 20
68 311 20
69 311 20
70 311 20
71 311 20
72 311 20
73 311 20
74 311 20
75 311 20
76 311 20
67 312 20
68 312 20
69 312 20
70 312 20
71 312 20
72 312 20
73 312 20
74 312 20
75 312 20
67 313 20
68 313 20
69 313 20
70 313 20
71 313 20
72 313 20
73 313 20
67 314 20
68 314 20
69 314 20
70 314 20
71 314 20
80 299 21
81 299 21
82 299 21
79 300 21
80 300 21
81 300 21
82 300 21
83 300 21
79 301 21
80 301 21
81 301 21
82 301 21
83 301 21
84 301 21
79 302 21
80 302 21
81 302 21
82 302 21
78 303 21
79 303 21
80 303 21
81 303 21
76 304 21
77 304 21
78 304 21
79 304 21
80 304 21
81 304 21
69 305 21
74 305 21
75 305 21
76 305 21
77 305 21
78 305 21
79 305 21
80 305 21
81 305 21
68 306 21
69 306 21
70 306 21
71 306 21
72 306 21
74 306 21
75 306 21
76 306 21
77 306 21
78 306 21
79 306 21
67 307 21
68 307 21
69 307 21
70 307 21
71 307 21
72 307 21
73 307 21
74 307 21
75 307 21
76 307 21
77 307 21
78 307 21
79 307 21
66 308 21
67 308 21
68 308 21
69 308 21
70 308 21
71 308 21
72 308 21
73 308 21
74 308 21
75 308 21
76 308 21
77 308 21
78 308 21
79 308 21
66 309 21
67 309 21
68 309 21
69 309 21
70 309 21
71 309 21
72 309 21
73 309 21
74 309 21
75 309 21
76 309 21
77 309 21
78 309 21
67 310 21
68 310 21
69 310 21
70 310 21
71 310 21
72 310 21
73 310 21
74 310 21
75 310 21
76 310 21
78 310 21
68 311 21
69 311 21
70 311 21
71 311 21
72 311 21
73 311 21
74 311 21
75 311 21
76 311 21
67 312 21
68 312 21
69 312 21
70 312 21
71 312 21
72 312 21
73 312 21
76 312 21
68 313 21
69 313 21
70 313 21
71 313 21
72 313 21
73 313 21
67 314 21
68 314 21
69 314 21
70 314 21
71 314 21
81 300 22
82 300 22
78 301 22
80 301 22
81 301 22
82 301 22
78 302 22
79 302 22
80 302 22
81 302 22
82 302 22
76 303 22
77 303 22
78 303 22
79 303 22
80 303 22
81 303 22
68 304 22
74 304 22
75 304 22
76 304 22
77 304 22
78 304 22
79 304 22
80 304 22
81 304 22
68 305 22
69 305 22
70 305 22
71 305 22
72 305 22
73 305 22
74 305 22
75 305 22
76 305 22
77 305 22
78 305 22
79 305 22
80 305 22
67 306 22
68 306 22
69 306 22
70 306 22
71 306 22
72 306 22
73 306 22
74 306 22
75 306 22
76 306 22
77 306 22
78 306 22
67 307 22
68 307 22
69 307 22
70 307 22
71 307 22
72 307 22
73 307 22
74 307 22
75 307 22
76 307 22
77 307 22
78 307 22
79 307 22
67 308 22
68 308 22
69 308 22
70 308 22
71 308 22
72 308 22
73 308 22
74 308 22
75 308 22
76 308 22
77 308 22
78 308 22
79 308 22
67 309 22
68 309 22
69 309 22
70 309 22
71 309 22
72 309 22
73 309 22
74 309 22
75 309 22
76 309 22
77 309 22
78 309 22
67 310 22
68 310 22
69 310 22
70 310 22
71 310 22
72 310 22
73 310 22
74 310 22
75 310 22
76 310 22
67 311 22
68 311 22
69 311 22
70 311 22
71 311 22
72 311 22
73 311 22
74 311 22
75 311 22
67 312 22
68 312 22
69 312 22
70 312 22
71 312 22
72 312 22
73 312 22
67 313 22
68 313 22
69 313 22
70 313 22
71 313 22
73 313 22
67 314 22
68 314 22
70 314 22
71 314 22
78 301 23
77 302 23
78 302 23
79 302 23
80 302 23
76 303 23
77 303 23
78 303 23
79 303 23
80 303 23
74 304 23
75 304 23
76 304 23
77 304 23
78 304 23
79 304 23
80 304 23
69 305 23
70 305 23
71 305 23
72 305 23
73 305 23
74 305 23
75 305 23
76 305 23
77 305 23
78 305 23
79 305 23
68 306 23
69 306 23
70 306 23
71 306 23
72 306 23
73 306 23
74 306 23
75 306 23
76 306 23
77 306 23
78 306 23
79 306 23
67 307 23
68 307 23
69 307 23
70 307 23
71 307 23
72 307 23
73 307 23
74 307 23
75 307 23
76 307 23
77 307 23
78 307 23
79 307 23
67 308 23
68 308 23
69 308 23
70 308 23
71 308 23
72 308 23
73 308 23
74 308 23
75 308 23
76 308 23
77 308 23
78 308 23
79 308 23
67 309 23
68 309 23
69 309 23
70 309 23
71 309 23
72 309 23
73 309 23
74 309 23
75 309 23
76 309 23
77 309 23
78 309 23
67 310 23
68 310 23
69 310 23
70 310 23
71 310 23
72 310 23
73 310 23
74 310 23
75 310 23
76 310 23
77 310 23
67 311 23
68 311 23
69 311 23
70 311 23
71 311 23
72 311 23
73 311 23
74 311 23
75 311 23
67 312 23
68 312 23
69 312 23
70 312 23
71 312 23
72 312 23
73 312 23
67 313 23
68 313 23
69 313 23
70 313 23
71 313 23
68 314 23
69 314 23
79 303 24
73 304 24
74 304 24
75 304 24
76 304 24
77 304 24
78 304 24
79 304 24
71 305 24
72 305 24
73 305 24
74 305 24
75 305 24
76 305 24
77 305 24
78 305 24
79 305 24
69 306 24
70 306 24
71 306 24
72 306 24
73 306 24
74 306 24
75 306 24
76 306 24
77 306 24
78 306 24
79 306 24
68 307 24
69 307 24
70 307 24
71 307 24
72 307 24
73 307 24
74 307 24
75 307 24
76 307 24
77 307 24
78 307 24
67 308 24
68 308 24
69 308 24
70 308 24
71 308 24
72 308 24
73 308 24
74 308 24
75 308 24
76 308 24
77 308 24
78 308 24
66 309 24
67 309 24
68 309 24
69 309 24
70 309 24
71 309 24
72 309 24
73 309 24
74 309 24
75 309 24
76 309 24
77 309 24
78 309 24
67 310 24
68 310 24
69 310 24
70 310 24
71 310 24
72 310 24
73 310 24
74 310 24
75 310 24
76 310 24
67 311 24
68 311 24
69 311 24
70 311 24
71 311 24
72 311 24
73 311 24
74 311 24
68 312 24
69 312 24
70 312 24
71 312 24
72 312 24
73 312 24
68 313 24
69 313 24
70 313 24
77 304 25
72 305 25
73 305 25
75 305 25
77 305 25
78 305 25
71 306 25
72 306 25
73 306 25
74 306 25
75 306 25
76 306 25
77 306 25
78 306 25
70 307 25
71 307 25
72 307 25
73 307 25
74 307 25
75 307 25
76 307 25
77 307 25
78 307 25
68 308 25
69 308 25
70 308 25
71 308 25
72 308 25
73 308 25
74 308 25
75 308 25
76 308 25
77 308 25
67 309 25
68 309 25
69 309 25
70 309 25
71 309 25
72 309 25
73 309 25
74 309 25
75 309 25
76 309 25
67 310 25
68 310 25
69 310 25
70 310 25
71 310 25
72 310 25
73 310 25
74 310 25
75 310 25
67 311 25
68 311 25
69 311 25
70 311 25
71 311 25
72 311 25
73 311 25
74 311 25
68 312 25
69 312 25
70 312 25
71 312 25
72 312 25
73 312 25
75 306 26
76 306 26
77 306 26
72 307 26
73 307 26
74 307 26
75 307 26
76 307 26
77 307 26
71 308 26
72 308 26
73 308 26
74 308 26
75 308 26
76 308 26
77 308 26
78 308 26
70 309 26
71 309 26
72 309 26
73 309 26
74 309 26
75 309 26
76 309 26
77 309 26
69 310 26
70 310 26
71 310 26
72 310 26
73 310 26
74 310 26
75 310 26
76 310 26
68 311 26
70 311 26
71 311 26
72 311 26
73 311 26
74 311 26
75 311 26
72 312 26
73 312 26
74 312 26
75 312 26
74 307 27
75 307 27
76 307 27
73 308 27
74 308 27
75 308 27
76 308 27
71 309 27
72 309 27
73 309 27
74 309 27
75 309 27
76 309 27
71 310 27
72 310 27
73 310 27
74 310 27
75 310 27
72 311 27
73 311 27
74 311 27
72 312 27
73 309 28
74 309 28
75 309 28
73 310 28
